<svg width="32" height="32" viewBox="0 0 32 32" fill="none" xmlns="http://www.w3.org/2000/svg">
<g id="Logo" filter="url(#filter0_b_3045_19058)">
<rect width="32" height="32" rx="4" fill="#D1FDD1"/>
<g id="Group 1597883341">
<path id="Vector" d="M25.6184 18.7602C25.6184 22.1939 21.4277 23.5893 16.2244 23.5893C11.0212 23.5893 6.76953 22.1939 6.76953 18.7602C6.76953 15.3264 10.9907 12.5479 16.1939 12.5479C21.3971 12.5479 25.6184 15.3325 25.6184 18.7602Z" fill="#24A95A"/>
<path id="Vector_2" d="M24.6604 11.276C24.6604 9.46813 23.1843 8 21.3665 8C20.4213 8 19.5693 8.39747 18.9689 9.03051C18.8759 9.12858 18.74 9.17636 18.6075 9.14961C17.8469 8.99602 17.0422 8.91001 16.2121 8.91001C15.382 8.91001 14.5774 8.99095 13.8169 9.14824C13.6842 9.17566 13.5477 9.12867 13.4542 9.03077C12.849 8.39757 11.9974 8 11.0576 8C9.23984 8 7.76367 9.46813 7.76367 11.276C7.76367 11.8033 7.88842 12.2972 8.10812 12.7365C8.16074 12.8417 8.16604 12.9649 8.12052 13.0734C7.90736 13.5813 7.79417 14.1175 7.79417 14.6734C7.79417 17.8584 11.5639 20.4367 16.2121 20.4367C20.8603 20.4367 24.6301 17.8584 24.6301 14.6734C24.6301 14.1175 24.5168 13.5813 24.3036 13.0734C24.2581 12.9649 24.2634 12.8417 24.3161 12.7365C24.5358 12.2972 24.6604 11.8033 24.6604 11.276Z" fill="#32DA6D"/>
<path id="Vector_3" d="M10.7903 13.0934C11.9021 13.0934 12.8033 12.197 12.8033 11.0914C12.8033 9.98568 11.9021 9.08936 10.7903 9.08936C9.67858 9.08936 8.77734 9.98568 8.77734 11.0914C8.77734 12.197 9.67858 13.0934 10.7903 13.0934Z" fill="white"/>
<path id="Vector_4" d="M21.5286 13.0934C22.6402 13.0934 23.5415 12.197 23.5415 11.0914C23.5415 9.98568 22.6402 9.08936 21.5286 9.08936C20.4168 9.08936 19.5156 9.98568 19.5156 11.0914C19.5156 12.197 20.4168 13.0934 21.5286 13.0934Z" fill="white"/>
<path id="Vector_5" d="M9.72247 23.3433C10.1556 23.3433 10.4972 22.9672 10.4484 22.5425C10.2715 21.0379 9.52117 17.7801 6.22112 15.8206C2.60355 13.6718 4.32464 19.3846 5.04403 21.466C5.18955 21.887 5.0208 22.3545 4.6345 22.5761L4.39723 22.7124C4.09224 22.8883 4.22034 23.3433 4.56803 23.3433H9.72247Z" fill="#32DA6D"/>
<path id="Vector_6" d="M22.8305 23.3433C22.4401 23.3433 22.1351 22.9672 22.1778 22.5426C22.3303 21.044 23.0135 17.7801 25.9903 15.8206C29.2865 13.6552 27.6821 19.4737 27.0417 21.5138C26.9161 21.9139 27.0707 22.3494 27.425 22.574L27.6434 22.7124C27.9178 22.8883 27.802 23.3433 27.4909 23.3433H22.8305Z" fill="#32DA6D"/>
<path id="Vector_7" d="M10.7927 12.2889C11.4559 12.2889 11.9935 11.7513 11.9935 11.0881C11.9935 10.4249 11.4559 9.88721 10.7927 9.88721C10.1294 9.88721 9.5918 10.4249 9.5918 11.0881C9.5918 11.7513 10.1294 12.2889 10.7927 12.2889Z" fill="#092511"/>
<path id="Vector_8" d="M21.5329 12.2889C22.1962 12.2889 22.7336 11.7513 22.7336 11.0881C22.7336 10.4249 22.1962 9.88721 21.5329 9.88721C20.8697 9.88721 20.332 10.4249 20.332 11.0881C20.332 11.7513 20.8697 12.2889 21.5329 12.2889Z" fill="#092511"/>
<path id="Vector_9" d="M18.8808 15.7347C19.1786 15.7604 19.4036 16.0245 19.3286 16.3138C19.268 16.5475 19.1812 16.7744 19.0695 16.9897C18.8745 17.3657 18.6073 17.6996 18.2833 17.9723C17.9592 18.245 17.5846 18.4512 17.1809 18.5792C16.7771 18.7071 16.3521 18.7543 15.9302 18.718C15.5082 18.6817 15.0975 18.5626 14.7215 18.3676C14.3456 18.1726 14.0117 17.9054 13.739 17.5813C13.4663 17.2573 13.2601 16.8827 13.1321 16.4789C13.0406 16.1901 12.9904 15.8903 12.9825 15.5886C12.9773 15.3895 13.1542 15.2421 13.3527 15.2592L16.2066 15.5047L18.8808 15.7347Z" fill="#092511"/>
</g>
</g>
<defs>
<filter id="filter0_b_3045_19058" x="-16" y="-16" width="64" height="64" filterUnits="userSpaceOnUse" color-interpolation-filters="sRGB">
<feFlood flood-opacity="0" result="BackgroundImageFix"/>
<feGaussianBlur in="BackgroundImageFix" stdDeviation="8"/>
<feComposite in2="SourceAlpha" operator="in" result="effect1_backgroundBlur_3045_19058"/>
<feBlend mode="normal" in="SourceGraphic" in2="effect1_backgroundBlur_3045_19058" result="shape"/>
</filter>
</defs>
</svg>
